<?xml version="1.0" encoding="UTF-8"?>
<svg xmlns="http://www.w3.org/2000/svg" xmlns:xlink="http://www.w3.org/1999/xlink" width="3000px" height="1106px" viewBox="0 0 3001 1106" version="1.1">
<defs>
<clipPath id="clip1">
  <path d="M 1 684.957031 L 2996.601562 684.957031 L 2996.601562 1106 L 1 1106 Z M 1 684.957031 "/>
</clipPath>
<clipPath id="clip2">
  <path d="M 974.3125 1.136719 L 2023.046875 1.136719 L 2023.046875 585.023438 L 974.3125 585.023438 Z M 974.3125 1.136719 "/>
</clipPath>
<clipPath id="clip3">
  <path d="M 2083 539 L 2996.601562 539 L 2996.601562 578 L 2083 578 Z M 2083 539 "/>
</clipPath>
<clipPath id="clip4">
  <path d="M 0.757812 539 L 914 539 L 914 578 L 0.757812 578 Z M 0.757812 539 "/>
</clipPath>
<clipPath id="clip5">
  <path d="M 2083 462 L 2996.601562 462 L 2996.601562 502 L 2083 502 Z M 2083 462 "/>
</clipPath>
<clipPath id="clip6">
  <path d="M 0.757812 462 L 914 462 L 914 502 L 0.757812 502 Z M 0.757812 462 "/>
</clipPath>
</defs>
<g id="surface1">
<g clip-path="url(#clip1)" clip-rule="nonzero">
<path style=" stroke:none;fill-rule:nonzero;fill:rgb(100%,66.27451%,41.568627%);fill-opacity:1;" d="M 125.472656 1108.277344 L 1.101562 1108.277344 L 1.101562 727.714844 L 125.472656 727.714844 Z M 237.632812 803.707031 L 145.554688 803.707031 L 145.554688 727.714844 L 287.78125 727.714844 L 363.765625 803.707031 L 363.765625 934.203125 L 287.78125 1010.433594 L 145.554688 1010.433594 L 145.554688 934.203125 L 237.632812 934.203125 Z M 416.261719 1108.277344 L 416.261719 803.707031 L 543.21875 803.707031 L 543.21875 1108.277344 Z M 416.261719 765.886719 L 416.261719 684.957031 L 543.21875 684.957031 L 543.21875 765.886719 Z M 886.15625 1032.28125 L 886.15625 1108.277344 L 708.933594 1108.277344 L 776.34375 1032.28125 Z M 603.46875 879.703125 L 603.46875 803.707031 L 774.582031 803.707031 L 708.933594 879.703125 Z M 600.53125 1108.277344 L 600.53125 1034.628906 L 798.425781 803.707031 L 885.800781 803.707031 L 885.800781 879.703125 L 685.445312 1108.277344 Z M 1224.746094 1032.28125 L 1224.746094 1108.277344 L 1047.523438 1108.277344 L 1114.933594 1032.28125 Z M 942.058594 879.703125 L 942.058594 803.707031 L 1113.171875 803.707031 L 1047.523438 879.703125 Z M 939.121094 1108.277344 L 939.121094 1034.628906 L 1137.015625 803.707031 L 1224.390625 803.707031 L 1224.390625 879.703125 L 1024.035156 1108.277344 Z M 1604.910156 1108.277344 L 1481.007812 1108.277344 L 1481.007812 879.703125 L 1300.730469 879.703125 L 1300.730469 841.882812 L 1338.78125 803.707031 L 1528.921875 803.707031 L 1604.910156 879.703125 Z M 1326.214844 931.03125 L 1460.921875 931.03125 L 1460.921875 983.769531 L 1395.625 983.769531 L 1395.625 1037.214844 L 1460.921875 1037.214844 L 1460.921875 1070.6875 L 1423.105469 1108.277344 L 1326.214844 1108.277344 L 1275.128906 1058.121094 L 1275.128906 981.773438 Z M 2124.363281 727.714844 L 2124.363281 980.953125 L 2167.464844 980.953125 L 2167.464844 1055.183594 L 2124.363281 1055.183594 L 2124.363281 1108.277344 L 2002.574219 1108.277344 L 2002.574219 727.714844 Z M 1817.832031 1055.183594 L 1787.769531 984.710938 L 1982.488281 753.554688 L 1982.488281 904.132812 L 1913.316406 980.953125 L 1982.488281 980.953125 L 1982.488281 1055.183594 Z M 2582.039062 803.707031 L 2582.039062 1032.28125 L 2506.054688 1108.277344 L 2360.304688 1108.277344 L 2360.304688 1032.28125 L 2455.199219 1032.28125 L 2455.199219 727.714844 L 2506.054688 727.714844 Z M 2340.808594 803.707031 L 2340.808594 1108.277344 L 2290.425781 1108.277344 L 2214.089844 1032.28125 L 2214.089844 803.707031 L 2290.425781 727.714844 L 2435.703125 727.714844 L 2435.703125 803.707031 Z M 2953.277344 727.714844 L 2953.277344 980.953125 L 2996.261719 980.953125 L 2996.261719 1055.183594 L 2953.277344 1055.183594 L 2953.277344 1108.277344 L 2831.371094 1108.277344 L 2831.371094 727.714844 Z M 2646.75 1055.183594 L 2616.683594 984.710938 L 2811.289062 753.554688 L 2811.289062 904.132812 L 2742.230469 980.953125 L 2811.289062 980.953125 L 2811.289062 1055.183594 Z M 2646.75 1055.183594 "/>
</g>
<g clip-path="url(#clip2)" clip-rule="nonzero">
<path style=" stroke:none;fill-rule:nonzero;fill:rgb(90.196078%,34.117647%,15.686275%);fill-opacity:1;" d="M 2020.640625 433.296875 L 2017.113281 408.5625 C 2013.710938 389.445312 2008.632812 371.605469 2000.929688 357.394531 C 1972.277344 304.503906 1753.953125 27.910156 1691.191406 9.96875 C 1680.691406 6.964844 1652.761719 0 1619.980469 0 C 1574.976562 0 1538.285156 13.144531 1513.835938 38.023438 C 1491.78125 60.46875 1479.820312 91.753906 1478.21875 131.175781 C 1447.242188 145.339844 1370.953125 183.886719 1349.929688 228.273438 C 1339.328125 250.660156 1295.308594 270.640625 1259.929688 286.722656 C 1231.46875 299.648438 1206.886719 310.820312 1191.851562 324.710938 C 1183.777344 332.164062 1172.824219 343.242188 1160.191406 356.035156 C 1124.222656 392.4375 1069.863281 447.460938 1037.570312 461.070312 C 1001.011719 476.457031 976.847656 501.453125 974.492188 526.289062 C 973.230469 539.589844 978.730469 551.714844 989.21875 558.699219 C 1008.113281 571.289062 1076.65625 580.699219 1125.324219 580.699219 C 1135.585938 580.699219 1145.496094 580.316406 1154.714844 579.5 C 1182.382812 576.96875 1282.5625 574.929688 1378.027344 574.929688 C 1492.234375 574.929688 1543.773438 577.71875 1553.21875 580.109375 C 1573.015625 585.125 1590.761719 584.863281 1616.75 582.902344 C 1633.757812 581.652344 1653.570312 580.191406 1682.800781 580.710938 C 1712.816406 581.300781 1740.527344 582.46875 1763.34375 583.457031 C 1783.640625 584.308594 1800.136719 585.019531 1811.125 585.019531 C 1818.507812 585.019531 1823.214844 584.726562 1826.445312 584.125 C 1827.636719 583.976562 1833.757812 583.492188 1862.671875 583.492188 C 1914.414062 583.492188 1997.984375 585.019531 1998.027344 585.019531 C 2008.972656 585.179688 2016.941406 577.671875 2018.234375 567.511719 C 2018.734375 563.441406 2027.035156 496.054688 2020.640625 433.296875 Z M 1448.636719 247.460938 C 1489.445312 237.0625 1526.742188 245.148438 1531.933594 265.558594 C 1537.128906 285.9375 1508.292969 310.945312 1467.492188 321.332031 C 1426.683594 331.730469 1389.402344 323.644531 1384.195312 303.234375 C 1379.015625 282.855469 1407.859375 257.871094 1448.636719 247.460938 Z M 1252.617188 348.582031 C 1292.054688 345.25 1325.277344 359.699219 1326.820312 380.902344 C 1328.394531 402.089844 1297.703125 422.035156 1258.285156 425.371094 C 1218.847656 428.714844 1185.625 414.257812 1184.082031 393.039062 C 1182.53125 371.84375 1213.203125 351.941406 1252.617188 348.582031 Z M 1705.027344 533.738281 C 1703.902344 536.167969 1703.371094 538.683594 1703.289062 541.179688 C 1696.839844 540.996094 1690.296875 540.839844 1683.59375 540.691406 C 1678.957031 540.613281 1674.558594 540.578125 1670.339844 540.578125 C 1646.109375 540.578125 1628.167969 541.917969 1613.769531 542.992188 C 1592.996094 544.570312 1578.671875 545.261719 1563.035156 541.328125 C 1542.140625 536.019531 1450.894531 534.917969 1378.039062 534.917969 C 1279.933594 534.917969 1180.25 536.996094 1151.097656 539.648438 C 1144.304688 540.273438 1136.902344 540.464844 1129.417969 540.542969 C 1204.246094 511.332031 1292.453125 482.945312 1318.371094 488.988281 C 1333.714844 492.640625 1345.167969 496.507812 1355.28125 499.910156 C 1378.957031 507.90625 1397.703125 514.222656 1431.539062 503.640625 C 1441.027344 500.671875 1450.800781 496.792969 1460.679688 492.824219 C 1495.386719 478.941406 1517.816406 471.457031 1536.652344 484.667969 C 1579.707031 514.824219 1614.890625 509.640625 1648.917969 504.71875 L 1651.574219 504.355469 C 1676.9375 500.636719 1702.351562 504.085938 1708.246094 511.976562 C 1710.898438 515.515625 1709.730469 523.464844 1705.027344 533.738281 Z M 1646.867188 414.300781 C 1596.226562 418.054688 1553.558594 402.191406 1551.515625 378.792969 C 1549.464844 355.410156 1588.84375 333.386719 1639.460938 329.621094 C 1690.082031 325.824219 1732.785156 341.734375 1734.824219 365.117188 C 1736.867188 388.480469 1697.484375 410.535156 1646.867188 414.300781 Z M 1805.035156 384.875 C 1796.78125 356.894531 1784.296875 328.386719 1765.589844 313.6875 C 1719.1875 277.21875 1661.414062 228.578125 1638.441406 201.429688 C 1635.390625 197.835938 1574.355469 126.71875 1519.1875 121.636719 C 1521.808594 97.914062 1529.484375 79.222656 1542.386719 66.105469 C 1563.546875 44.578125 1596.273438 40.054688 1619.992188 40.054688 C 1647.742188 40.054688 1671.324219 45.953125 1680.191406 48.46875 C 1716.332031 58.789062 1876.429688 246.554688 1942.476562 340.375 C 1920.242188 331.347656 1894.523438 329 1866.269531 339.601562 C 1837.613281 350.332031 1818.347656 365.753906 1805.035156 384.875 Z M 1980.386719 544.683594 C 1952.71875 544.253906 1899.640625 543.480469 1862.664062 543.480469 C 1829.054688 543.480469 1822.996094 544.09375 1819.6875 544.683594 C 1818.144531 544.921875 1815.761719 545.035156 1812.792969 545.082031 C 1812.941406 542.484375 1813.085938 539.695312 1813.199219 537.140625 C 1817.839844 441.847656 1822.339844 398.8125 1880.328125 377.082031 C 1929.382812 358.644531 1965.132812 402.257812 1978.980469 423.238281 C 1984.921875 463.769531 1983.140625 513.292969 1980.386719 544.683594 Z M 1980.386719 544.683594 "/>
</g>
<g clip-path="url(#clip3)" clip-rule="nonzero">
<path style=" stroke:none;fill-rule:nonzero;fill:rgb(90.196078%,34.117647%,15.686275%);fill-opacity:1;" d="M 2083.644531 539.273438 L 2996.601562 539.273438 L 2996.601562 577.449219 L 2083.644531 577.449219 Z M 2083.644531 539.273438 "/>
</g>
<g clip-path="url(#clip4)" clip-rule="nonzero">
<path style=" stroke:none;fill-rule:nonzero;fill:rgb(90.196078%,34.117647%,15.686275%);fill-opacity:1;" d="M 0.757812 539.273438 L 913.71875 539.273438 L 913.71875 577.449219 L 0.757812 577.449219 Z M 0.757812 539.273438 "/>
</g>
<g clip-path="url(#clip5)" clip-rule="nonzero">
<path style=" stroke:none;fill-rule:nonzero;fill:rgb(90.196078%,34.117647%,15.686275%);fill-opacity:1;" d="M 2083.644531 462.921875 L 2996.601562 462.921875 L 2996.601562 501.097656 L 2083.644531 501.097656 Z M 2083.644531 462.921875 "/>
</g>
<g clip-path="url(#clip6)" clip-rule="nonzero">
<path style=" stroke:none;fill-rule:nonzero;fill:rgb(90.196078%,34.117647%,15.686275%);fill-opacity:1;" d="M 0.757812 462.921875 L 913.71875 462.921875 L 913.71875 501.097656 L 0.757812 501.097656 Z M 0.757812 462.921875 "/>
</g>
</g>
</svg>
